<?xml version="1.0" encoding="UTF-8" standalone="no" ?>
<!DOCTYPE svg PUBLIC "-//W3C//DTD SVG 1.1//EN" "http://www.w3.org/Graphics/SVG/1.1/DTD/svg11.dtd">
<svg xmlns="http://www.w3.org/2000/svg" xmlns:xlink="http://www.w3.org/1999/xlink" version="1.1" width="500" height="500" viewBox="0 0 500 500" xml:space="preserve">
<desc>Created with Fabric.js 4.6.0</desc>
<defs>
</defs>
<g transform="matrix(1 0 0 1 250 250)" id="994hYAWiQHSVwP2u-F03w"  >
<path style="stroke: none; stroke-width: 1; stroke-dasharray: none; stroke-linecap: butt; stroke-dashoffset: 0; stroke-linejoin: miter; stroke-miterlimit: 4; fill: rgb(0,0,0); fill-rule: nonzero; opacity: 1;" vector-effect="non-scaling-stroke"  transform=" translate(-171, -246.81)" d="M 2.6674 472.98461 C 12.57201 466.12737999999996 21.33416 460.4126 29.716340000000002 453.93534999999997 C 67.05238 425.74395999999996 91.43392 388.40792 102.86347 343.45218 C 120.0078 275.25735 120.0078 207.44251 99.05362000000001 140.01003 C 85.71914000000001 97.72169 60.19514000000001 63.8155 24.381540000000015 37.909000000000006 C 16.761840000000014 32.19422000000001 8.379660000000015 26.859430000000007 1.4210854715202004e-14 20.764670000000006 C 75.81453000000002 -17.333849999999995 208.39434 -8.189189999999993 288.01903 92.00688000000001 C 364.21353999999997 188.01312000000001 358.11879 322.49822 280.01935 410.88495 C 195.44266 506.51121 65.14776999999998 507.27129 2.6677099999999996 472.98503 z" stroke-linecap="round" />
</g>
</svg>