<?xml version="1.0" encoding="UTF-8" standalone="no" ?>
<!DOCTYPE svg PUBLIC "-//W3C//DTD SVG 1.1//EN" "http://www.w3.org/Graphics/SVG/1.1/DTD/svg11.dtd">
<svg xmlns="http://www.w3.org/2000/svg" xmlns:xlink="http://www.w3.org/1999/xlink" version="1.1" width="500" height="500" viewBox="0 0 500 500" xml:space="preserve">
<desc>Created with Fabric.js 4.6.0</desc>
<defs>
</defs>
<g transform="matrix(1 0 0 1 250 250)" id="NdCet4HCwX2AakUD5cfqD"  >
<path style="stroke: none; stroke-width: 1; stroke-dasharray: none; stroke-linecap: butt; stroke-dashoffset: 0; stroke-linejoin: miter; stroke-miterlimit: 4; fill: rgb(0,0,0); fill-rule: nonzero; opacity: 1;" vector-effect="non-scaling-stroke"  transform=" translate(-132.5, -247.75)" d="M 0 2.98578 C 58.73504 -10.36254 155.99284 21.292270000000002 211.29662 92.99612 C 283.7634 186.44022999999999 278.42368 305.81973 221.97606 387.43988 C 190.70084 432.82652 149.12774 465.24638000000004 96.87679999999999 482.7898 C 67.12776999999998 492.70614 36.61564999999999 497.66431 5.340429999999984 494.61388 C 15.256769999999984 487.36642 27.462399999999985 488.51107 38.521489999999986 485.07909 C 49.964019999999984 481.26556 61.786149999999985 478.59473 72.84714 473.25501 C 84.28967 467.53374 95.73214 462.19402 106.40969 455.70966000000004 C 116.70758 449.22530000000006 126.62392 442.36134000000004 135.77717 434.35078000000004 C 144.93042000000003 426.34218000000004 153.70212 417.95008000000007 161.71267 408.79683000000006 C 169.72127 399.64358000000004 176.96873 389.72724000000005 183.83464 380.19245000000006 C 190.70055000000002 370.2761100000001 196.42182 359.5966700000001 200.99844000000002 348.15414000000004 C 205.57506 337.09315000000004 210.15169000000003 325.65062000000006 213.58562 314.21004000000005 C 217.01760000000002 302.00441000000006 219.30689 289.41918000000004 221.21463 277.21356000000003 C 223.12237 265.00793000000004 223.12237 253.18580000000003 222.35927 240.98017000000004 C 221.59617 228.77454000000006 221.21463 216.57086000000004 218.92729 204.74678000000006 C 199.47615 103.29406000000006 121.66966 18.621680000000055 0.002720000000010714 2.9840800000000627 z" stroke-linecap="round" />
</g>
</svg>